<svg xmlns:svg="http://www.w3.org/2000/svg" xmlns="http://www.w3.org/2000/svg" version="1.0" width="320" height="145">

    <g id="sub-svg-transform" transform="translate(5 5) scale(0.4102756313219027) translate(-289.5783386230469 29.56787109375)">
        <g id="sub-svg-wrapper"><svg xmlns:dc="http://purl.org/dc/elements/1.1/" xmlns:cc="http://creativecommons.org/ns#" xmlns:rdf="http://www.w3.org/1999/02/22-rdf-syntax-ns#" xmlns:svg="http://www.w3.org/2000/svg" xmlns="http://www.w3.org/2000/svg" viewBox="0 0 1360 960" height="960" width="1360" xml:space="preserve" id="svg2" version="1.1" onmouseup="sendClickToParentDocument(evt)" style=""><metadata id="metadata8" onmouseup="sendClickToParentDocument(evt)" style=""><rdf:rdf onmouseup="sendClickToParentDocument(evt)" style=""><cc:work rdf:about="" onmouseup="sendClickToParentDocument(evt)" style=""><dc:format onmouseup="sendClickToParentDocument(evt)" style=""></dc:format><dc:type rdf:resource="http://purl.org/dc/dcmitype/StillImage" onmouseup="sendClickToParentDocument(evt)" style=""></dc:type></cc:work></rdf:rdf></metadata><defs id="defs6" onmouseup="sendClickToParentDocument(evt)" style=""><clipPath id="clipPath18" clipPathUnits="userSpaceOnUse" onmouseup="sendClickToParentDocument(evt)" style=""><path id="path16" d="m 217.299,517.207 8.693,2.395 14.753,4.064 v -0.016 l 0.001,0.016 22.08,-4.064 13.013,-2.395 v -77.094 h -35.093 l -0.001,0.011 v -0.01 h -23.446 z" onmouseup="sendClickToParentDocument(evt)" style="clip-rule:evenodd"></path></clipPath><linearGradient id="linearGradient28" spreadMethod="pad" gradientTransform="matrix(58.539787,0,0,-58.539787,217.29901,481.88974)" gradientUnits="userSpaceOnUse" y2="0" x2="1" y1="0" x1="0" onmouseup="sendClickToParentDocument(evt)" style=""><stop id="stop24" offset="0" onmouseup="sendClickToParentDocument(evt)" style="stop-color:#00a85a;stop-opacity:1"></stop><stop id="stop26" offset="1" onmouseup="sendClickToParentDocument(evt)" style="stop-color:#90c84b;stop-opacity:1"></stop></linearGradient><clipPath id="clipPath38" clipPathUnits="userSpaceOnUse" onmouseup="sendClickToParentDocument(evt)" style=""><path id="path36" d="m 783.876,495.616 -8.695,2.395 -14.753,4.064 v -0.017 0.017 l -22.079,-4.064 -13.013,-2.396 v -60.606 h 35.092 v 0.01 -0.01 h 23.448 z" onmouseup="sendClickToParentDocument(evt)" style="clip-rule:evenodd"></path></clipPath><linearGradient id="linearGradient48" spreadMethod="pad" gradientTransform="matrix(58.539787,0,0,-58.539787,725.33618,468.54156)" gradientUnits="userSpaceOnUse" y2="0" x2="1" y1="0" x1="0" onmouseup="sendClickToParentDocument(evt)" style=""><stop id="stop44" offset="0" onmouseup="sendClickToParentDocument(evt)" style="stop-color:#00a85a;stop-opacity:1"></stop><stop id="stop46" offset="1" onmouseup="sendClickToParentDocument(evt)" style="stop-color:#90c84b;stop-opacity:1"></stop></linearGradient><clipPath id="clipPath58" clipPathUnits="userSpaceOnUse" onmouseup="sendClickToParentDocument(evt)" style=""><path id="path56" d="m 669.686,522.065 -8.234,2.269 -13.975,3.849 v -0.014 l -0.002,0.014 -20.914,-3.849 -12.326,-2.269 V 444.66 h 33.24 l 0.002,0.011 v -0.009 h 22.209 z" onmouseup="sendClickToParentDocument(evt)" style="clip-rule:evenodd"></path></clipPath><linearGradient id="linearGradient68" spreadMethod="pad" gradientTransform="matrix(55.450863,0,0,-55.450863,614.23541,486.42166)" gradientUnits="userSpaceOnUse" y2="0" x2="1" y1="0" x1="0" onmouseup="sendClickToParentDocument(evt)" style=""><stop id="stop64" offset="0" onmouseup="sendClickToParentDocument(evt)" style="stop-color:#00a85a;stop-opacity:1"></stop><stop id="stop66" offset="1" onmouseup="sendClickToParentDocument(evt)" style="stop-color:#90c84b;stop-opacity:1"></stop></linearGradient><clipPath id="clipPath78" clipPathUnits="userSpaceOnUse" onmouseup="sendClickToParentDocument(evt)" style=""><path id="path76" d="m 684.073,508.997 5.631,1.767 v 3.485 l 4.167,1.307 v 6.165 l 2.919,0.914 v 7.774 l 2.471,0.776 3.518,-0.775 v -7.773 l 4.157,-0.916 v -6.165 l 5.937,-1.307 v -3.485 l 8.023,-1.767 v -66.684 h -21.635 v -10e-4 h -15.188 z" onmouseup="sendClickToParentDocument(evt)" style="clip-rule:evenodd"></path></clipPath><linearGradient id="linearGradient88" spreadMethod="pad" gradientTransform="matrix(36.823025,0,0,-36.823025,684.07251,486.74817)" gradientUnits="userSpaceOnUse" y2="0" x2="1" y1="0" x1="0" onmouseup="sendClickToParentDocument(evt)" style=""><stop id="stop84" offset="0" onmouseup="sendClickToParentDocument(evt)" style="stop-color:#00a85a;stop-opacity:1"></stop><stop id="stop86" offset="1" onmouseup="sendClickToParentDocument(evt)" style="stop-color:#90c84b;stop-opacity:1"></stop></linearGradient><clipPath id="clipPath98" clipPathUnits="userSpaceOnUse" onmouseup="sendClickToParentDocument(evt)" style=""><path id="path96" d="m 279.902,505.201 8.02,2.21 13.613,3.75 v -0.014 l 0.002,0.014 20.372,-3.75 12.007,-2.21 v -71.134 h -32.379 l -0.002,0.01 v -0.009 h -21.633 z" onmouseup="sendClickToParentDocument(evt)" style="clip-rule:evenodd"></path></clipPath><linearGradient id="linearGradient108" spreadMethod="pad" gradientTransform="matrix(54.013775,0,0,-54.013775,279.90201,472.61401)" gradientUnits="userSpaceOnUse" y2="0" x2="1" y1="0" x1="0" onmouseup="sendClickToParentDocument(evt)" style=""><stop id="stop104" offset="0" onmouseup="sendClickToParentDocument(evt)" style="stop-color:#00a85a;stop-opacity:1"></stop><stop id="stop106" offset="1" onmouseup="sendClickToParentDocument(evt)" style="stop-color:#90c84b;stop-opacity:1"></stop></linearGradient><linearGradient id="linearGradient128" spreadMethod="pad" gradientTransform="matrix(42.691231,0,0,-42.691231,333.91577,467.17163)" gradientUnits="userSpaceOnUse" y2="0" x2="1" y1="0" x1="0" onmouseup="sendClickToParentDocument(evt)" style=""><stop id="stop124" offset="0" onmouseup="sendClickToParentDocument(evt)" style="stop-color:#00a85a;stop-opacity:1"></stop><stop id="stop126" offset="1" onmouseup="sendClickToParentDocument(evt)" style="stop-color:#90c84b;stop-opacity:1"></stop></linearGradient><clipPath id="clipPath146" clipPathUnits="userSpaceOnUse" onmouseup="sendClickToParentDocument(evt)" style=""><path id="path144" d="M 0,720 H 1020 V 0 H 0 Z" onmouseup="sendClickToParentDocument(evt)" style=""></path></clipPath><linearGradient id="linearGradient242" spreadMethod="pad" gradientTransform="matrix(33,-30.999998,-30.999998,-33,566.70844,370.13724)" gradientUnits="userSpaceOnUse" y2="0" x2="1" y1="0" x1="0" onmouseup="sendClickToParentDocument(evt)" style=""><stop id="stop238" offset="0" onmouseup="sendClickToParentDocument(evt)" style="stop-color:#00a85a;stop-opacity:1"></stop><stop id="stop240" offset="1" onmouseup="sendClickToParentDocument(evt)" style="stop-color:#90c84b;stop-opacity:1"></stop></linearGradient><linearGradient id="linearGradient262" spreadMethod="pad" gradientTransform="matrix(-3.4999998,-33.5,-33.5,3.4999998,586.07861,376.86646)" gradientUnits="userSpaceOnUse" y2="0" x2="1" y1="0" x1="0" onmouseup="sendClickToParentDocument(evt)" style=""><stop id="stop258" offset="0" onmouseup="sendClickToParentDocument(evt)" style="stop-color:#00a85a;stop-opacity:1"></stop><stop id="stop260" offset="1" onmouseup="sendClickToParentDocument(evt)" style="stop-color:#90c84b;stop-opacity:1"></stop></linearGradient><linearGradient id="linearGradient282" spreadMethod="pad" gradientTransform="matrix(-27.500002,-43.5,-43.5,27.500002,642.93134,381.84131)" gradientUnits="userSpaceOnUse" y2="0" x2="1" y1="0" x1="0" onmouseup="sendClickToParentDocument(evt)" style=""><stop id="stop278" offset="0" onmouseup="sendClickToParentDocument(evt)" style="stop-color:#00a85a;stop-opacity:1"></stop><stop id="stop280" offset="1" onmouseup="sendClickToParentDocument(evt)" style="stop-color:#90c84b;stop-opacity:1"></stop></linearGradient><linearGradient id="linearGradient302" spreadMethod="pad" gradientTransform="matrix(7,19.5,19.5,-7,609.66028,376.91379)" gradientUnits="userSpaceOnUse" y2="0" x2="1" y1="0" x1="0" onmouseup="sendClickToParentDocument(evt)" style=""><stop id="stop298" offset="0" onmouseup="sendClickToParentDocument(evt)" style="stop-color:#00a85a;stop-opacity:1"></stop><stop id="stop300" offset="1" onmouseup="sendClickToParentDocument(evt)" style="stop-color:#90c84b;stop-opacity:1"></stop></linearGradient><linearGradient id="linearGradient322" spreadMethod="pad" gradientTransform="matrix(-18.5,-76,-76,18.5,615.11151,429.7782)" gradientUnits="userSpaceOnUse" y2="0" x2="1" y1="0" x1="0" onmouseup="sendClickToParentDocument(evt)" style=""><stop id="stop318" offset="0" onmouseup="sendClickToParentDocument(evt)" style="stop-color:#00a85a;stop-opacity:1"></stop><stop id="stop320" offset="1" onmouseup="sendClickToParentDocument(evt)" style="stop-color:#90c84b;stop-opacity:1"></stop></linearGradient><clipPath id="clipPath332" clipPathUnits="userSpaceOnUse" onmouseup="sendClickToParentDocument(evt)" style=""><path id="path330" d="M 0,720 H 1020 V 0 H 0 Z" onmouseup="sendClickToParentDocument(evt)" style=""></path></clipPath></defs><g transform="matrix(1.3333333,0,0,-1.3333333,0,740)" id="g10" onmouseup="sendClickToParentDocument(evt)" style=""><g id="g12" onmouseup="sendClickToParentDocument(evt)" style=""><g clip-path="url(#clipPath18)" id="g14" onmouseup="sendClickToParentDocument(evt)" style=""><g id="g20" onmouseup="sendClickToParentDocument(evt)" style=""><g id="g22" onmouseup="sendClickToParentDocument(evt)" style=""><path id="path30" d="m 217.299,517.207 8.693,2.395 14.753,4.064 v -0.016 l 0.001,0.016 22.08,-4.064 13.013,-2.395 v -77.094 h -35.093 l -0.001,0.011 v -0.01 h -23.446 z" onmouseup="sendClickToParentDocument(evt)" style="fill-rule:evenodd;fill:url(#linearGradient28)"></path></g></g></g></g><g id="g32" onmouseup="sendClickToParentDocument(evt)" style=""><g clip-path="url(#clipPath38)" id="g34" onmouseup="sendClickToParentDocument(evt)" style=""><g id="g40" onmouseup="sendClickToParentDocument(evt)" style=""><g id="g42" onmouseup="sendClickToParentDocument(evt)" style=""><path id="path50" d="m 783.876,495.616 -8.695,2.395 -14.753,4.064 v -0.017 0.017 l -22.079,-4.064 -13.013,-2.396 v -60.606 h 35.092 v 0.01 -0.01 h 23.448 z" onmouseup="sendClickToParentDocument(evt)" style="fill-rule:evenodd;fill:url(#linearGradient48)"></path></g></g></g></g><g id="g52" onmouseup="sendClickToParentDocument(evt)" style=""><g clip-path="url(#clipPath58)" id="g54" onmouseup="sendClickToParentDocument(evt)" style=""><g id="g60" onmouseup="sendClickToParentDocument(evt)" style=""><g id="g62" onmouseup="sendClickToParentDocument(evt)" style=""><path id="path70" d="m 669.686,522.065 -8.234,2.269 -13.975,3.849 v -0.014 l -0.002,0.014 -20.914,-3.849 -12.326,-2.269 V 444.66 h 33.24 l 0.002,0.011 v -0.009 h 22.209 z" onmouseup="sendClickToParentDocument(evt)" style="fill-rule:evenodd;fill:url(#linearGradient68)"></path></g></g></g></g><g id="g72" onmouseup="sendClickToParentDocument(evt)" style=""><g clip-path="url(#clipPath78)" id="g74" onmouseup="sendClickToParentDocument(evt)" style=""><g id="g80" onmouseup="sendClickToParentDocument(evt)" style=""><g id="g82" onmouseup="sendClickToParentDocument(evt)" style=""><path id="path90" d="m 684.073,508.997 5.631,1.767 v 3.485 l 4.167,1.307 v 6.165 l 2.919,0.914 v 7.774 l 2.471,0.776 3.518,-0.775 v -7.773 l 4.157,-0.916 v -6.165 l 5.937,-1.307 v -3.485 l 8.023,-1.767 v -66.684 h -21.635 v -10e-4 h -15.188 z" onmouseup="sendClickToParentDocument(evt)" style="fill-rule:evenodd;fill:url(#linearGradient88)"></path></g></g></g></g><g id="g92" onmouseup="sendClickToParentDocument(evt)" style=""><g clip-path="url(#clipPath98)" id="g94" onmouseup="sendClickToParentDocument(evt)" style=""><g id="g100" onmouseup="sendClickToParentDocument(evt)" style=""><g id="g102" onmouseup="sendClickToParentDocument(evt)" style=""><path id="path110" d="m 279.902,505.201 8.02,2.21 13.613,3.75 v -0.014 l 0.002,0.014 20.372,-3.75 12.007,-2.21 v -71.134 h -32.379 l -0.002,0.01 v -0.009 h -21.633 z" onmouseup="sendClickToParentDocument(evt)" style="fill-rule:evenodd;fill:url(#linearGradient108)"></path></g></g></g></g><g id="g112" onmouseup="sendClickToParentDocument(evt)" style=""><g id="g114" onmouseup="sendClickToParentDocument(evt)" style=""><g id="g120" onmouseup="sendClickToParentDocument(evt)" style=""><g id="g122" onmouseup="sendClickToParentDocument(evt)" style=""><path id="path130" d="m 333.916,492.929 6.339,1.747 10.76,2.963 v -0.011 0.011 l 16.103,-2.963 9.489,-1.747 v -56.225 h -25.592 v 0.009 -0.008 h -17.099 z" onmouseup="sendClickToParentDocument(evt)" style="fill-rule:evenodd;fill:url(#linearGradient128)"></path></g></g></g></g><path id="path132" d="m 397.82,441.509 h 4.119 v 111.718 h -4.119 z" onmouseup="sendClickToParentDocument(evt)" style="fill-rule:evenodd;fill:#ffffff"></path><path id="path134" d="m 426.068,441.509 h 4.12 v 111.718 h -4.12 z" onmouseup="sendClickToParentDocument(evt)" style="fill-rule:evenodd;fill:#ffffff"></path><path id="path136" d="M 430.188,534.357 H 397.82 v 2.649 h 32.368 z" onmouseup="sendClickToParentDocument(evt)" style="fill-rule:evenodd;fill:#ffffff"></path><path id="path138" d="M 430.188,496.325 H 397.82 v 2.649 h 32.368 z" onmouseup="sendClickToParentDocument(evt)" style="fill-rule:evenodd;fill:#ffffff"></path><g id="g140" onmouseup="sendClickToParentDocument(evt)" style=""><g clip-path="url(#clipPath146)" id="g142" onmouseup="sendClickToParentDocument(evt)" style=""><g transform="translate(429.6939,522.2912)" id="g148" onmouseup="sendClickToParentDocument(evt)" style=""><path id="path150" d="m 0,0 c 2.282,-6.69 5.642,-15.044 12.406,-24.223 v -3.791 c -1.004,1.247 -1.946,2.481 -2.827,3.7 v -13.78 c 0.927,-0.623 1.87,-1.247 2.827,-1.872 v -2.385 c -0.957,0.616 -1.898,1.228 -2.827,1.839 V -75.786 H 6.958 v 37.026 c -2.56,1.731 -5,3.452 -7.32,5.152 -3.589,2.635 -6.886,5.226 -9.89,7.759 v -49.937 h -2.62 v 52.201 c -2.304,2.037 -4.406,4.033 -6.307,5.977 V -76.872 H -21.8 v 62.057 c -4.793,5.331 -7.961,10.218 -9.407,14.461 L -28.649,0 c 2.94,-8.614 13.284,-20.051 30.253,-32.502 1.719,-1.26 3.503,-2.529 5.354,-3.808 v 15.834 c -4.869,7.563 -7.579,14.436 -9.519,20.122 z m 12.406,-24.223 c 1.586,-2.149 3.356,-4.346 5.344,-6.576 0.868,-0.973 1.778,-1.954 2.732,-2.941 v -3.121 c -0.911,0.888 -1.786,1.773 -2.628,2.653 v -9.231 c 0.865,-0.537 1.742,-1.075 2.628,-1.615 v -2.302 c -0.886,0.531 -1.763,1.061 -2.628,1.591 v -30.021 h -2.621 v 31.644 c -0.956,0.598 -1.898,1.195 -2.827,1.791 v 2.385 c 0.929,-0.608 1.87,-1.215 2.827,-1.824 v 10.431 c -0.995,1.125 -1.936,2.24 -2.827,3.345 z m 8.076,-9.517 c 2.43,-2.513 5.143,-5.064 8.183,-7.638 v -2.744 c -1.011,0.82 -1.988,1.637 -2.934,2.453 v -6.507 c 0.966,-0.562 1.946,-1.124 2.934,-1.688 V -52.1 c -0.988,0.555 -1.966,1.111 -2.934,1.666 v -25.352 h -2.62 v 26.873 c -0.887,0.52 -1.762,1.039 -2.629,1.557 v 2.302 c 0.865,-0.525 1.742,-1.052 2.629,-1.58 v 7.291 c -0.908,0.831 -1.784,1.658 -2.629,2.482 z m 8.183,-7.638 c 2.505,-2.118 5.23,-4.253 8.199,-6.395 v -2.504 c -0.903,0.628 -1.783,1.257 -2.643,1.884 v -4.567 c 0.873,-0.477 1.752,-0.954 2.643,-1.43 v -2.18 c -0.891,0.471 -1.77,0.941 -2.643,1.412 v -20.628 h -2.62 v 22.056 c -0.99,0.543 -1.968,1.087 -2.936,1.63 v 2.236 c 0.966,-0.55 1.946,-1.102 2.936,-1.652 v 5.084 c -1.009,0.771 -1.987,1.542 -2.936,2.31 z m 8.199,-6.395 c 8.935,-6.446 20.082,-12.957 34.069,-19.311 13.987,6.354 25.132,12.865 34.069,19.312 v -2.505 c -0.862,-0.6 -1.743,-1.202 -2.643,-1.804 v -3.712 c 0.89,0.467 1.77,0.935 2.643,1.403 v -2.179 c -0.873,-0.463 -1.754,-0.926 -2.643,-1.388 v -17.829 h -2.622 v 16.478 c -6.236,-3.185 -12.835,-6.359 -19.788,-9.491 l -1.496,1.375 c 7.517,3.387 14.617,6.819 21.284,10.264 v 3.364 C 91.893,-58.827 82.636,-63.863 71.68,-68.799 l -0.747,0.687 -0.748,-0.687 c -10.955,4.936 -20.212,9.972 -28.057,15.003 v -3.364 c 6.668,-3.445 13.767,-6.877 21.282,-10.264 l -1.496,-1.375 c -6.951,3.132 -13.55,6.306 -19.786,9.491 v -16.478 h -2.622 v 17.829 c -0.889,0.462 -1.77,0.925 -2.642,1.387 v 2.18 c 0.872,-0.469 1.753,-0.936 2.642,-1.403 v 3.712 c -0.902,0.601 -1.781,1.202 -2.642,1.804 z m 68.138,0.001 c 2.967,2.141 5.693,4.276 8.198,6.395 v -2.745 c -0.95,-0.768 -1.927,-1.539 -2.935,-2.31 v -5.084 c 0.989,0.551 1.968,1.102 2.935,1.652 V -52.1 c -0.969,-0.543 -1.946,-1.087 -2.935,-1.63 v -22.056 h -2.621 v 20.628 c -0.873,-0.471 -1.753,-0.941 -2.642,-1.411 v 2.179 c 0.889,0.476 1.769,0.953 2.642,1.43 v 4.567 c -0.861,-0.626 -1.74,-1.255 -2.642,-1.884 z m 8.198,6.395 c 3.039,2.573 5.752,5.124 8.183,7.637 v -3.122 c -0.845,-0.824 -1.722,-1.65 -2.63,-2.481 v -7.291 c 0.888,0.528 1.764,1.054 2.63,1.58 v -2.302 c -0.867,-0.519 -1.742,-1.038 -2.63,-1.557 v -26.873 h -2.619 v 25.352 c -0.967,-0.555 -1.944,-1.111 -2.934,-1.666 v 2.236 c 0.99,0.564 1.967,1.125 2.934,1.688 v 6.507 c -0.946,-0.816 -1.924,-1.633 -2.934,-2.453 z m 8.183,7.637 c 0.954,0.987 1.865,1.967 2.733,2.941 1.987,2.23 3.757,4.425 5.341,6.574 v -3.789 c -0.891,-1.106 -1.83,-2.221 -2.827,-3.345 V -41.79 c 0.957,0.609 1.9,1.216 2.827,1.822 v -2.383 c -0.929,-0.596 -1.87,-1.193 -2.827,-1.791 v -31.644 h -2.618 v 30.021 c -0.867,-0.53 -1.743,-1.06 -2.629,-1.591 v 2.302 c 0.886,0.54 1.762,1.078 2.629,1.615 v 9.231 c -0.842,-0.88 -1.718,-1.766 -2.629,-2.654 z m 8.074,9.515 c 6.765,9.18 10.126,17.535 12.409,24.225 l 2.558,-0.354 c -1.939,-5.686 -4.647,-12.559 -9.517,-20.122 V -36.31 c 1.852,1.279 3.637,2.548 5.353,3.808 16.97,12.451 27.312,23.888 30.254,32.502 l 2.56,-0.354 c -1.448,-4.243 -4.615,-9.131 -9.411,-14.461 v -62.057 h -2.619 v 59.264 c -1.9,-1.944 -4.004,-3.94 -6.308,-5.977 v -52.201 h -2.621 v 49.937 c -3.002,-2.533 -6.298,-5.124 -9.889,-7.759 -2.318,-1.7 -4.759,-3.421 -7.319,-5.152 v -37.026 h -2.622 v 35.274 c -0.927,-0.611 -1.871,-1.224 -2.828,-1.839 v 2.383 c 0.958,0.626 1.901,1.251 2.828,1.874 v 13.78 c -0.882,-1.22 -1.822,-2.453 -2.828,-3.7 z" onmouseup="sendClickToParentDocument(evt)" style="fill-rule:nonzero;fill:#ffffff"></path></g><path id="path152" d="m 599.314,441.509 h 4.12 v 111.718 h -4.12 z" onmouseup="sendClickToParentDocument(evt)" style="fill-rule:evenodd;fill:#ffffff"></path><path id="path154" d="m 571.064,441.509 h 4.12 v 111.718 h -4.12 z" onmouseup="sendClickToParentDocument(evt)" style="fill-rule:evenodd;fill:#ffffff"></path><path id="path156" d="m 571.064,534.357 h 32.368 v 2.649 h -32.368 z" onmouseup="sendClickToParentDocument(evt)" style="fill-rule:evenodd;fill:#ffffff"></path><path id="path158" d="m 571.064,496.325 h 32.368 v 2.649 h -32.368 z" onmouseup="sendClickToParentDocument(evt)" style="fill-rule:evenodd;fill:#ffffff"></path><g transform="translate(392.8836,511.501)" id="g160" onmouseup="sendClickToParentDocument(evt)" style=""><path id="path162" d="m 0,0 -6.02,1.887 v 3.722 l -4.453,1.399 v 6.585 l -3.117,0.979 v 8.304 l -2.641,0.828 -3.76,-0.828 V 14.572 L -24.43,13.593 V 7.008 L -30.773,5.609 V 1.887 L -39.343,0 V -69.992 H -16.231 0 Z" onmouseup="sendClickToParentDocument(evt)" style="fill-rule:evenodd;fill:#ffffff"></path></g><g transform="translate(607.4971,516.6981)" id="g164" onmouseup="sendClickToParentDocument(evt)" style=""><path id="path166" d="M 0,0 7.361,2.027 19.849,5.468 V 5.455 L 19.85,5.467 38.544,2.027 49.561,0 V -75.189 H 19.85 l -0.001,0.009 v -0.009 H 0 Z" onmouseup="sendClickToParentDocument(evt)" style="fill-rule:evenodd;fill:#ffffff"></path></g><path id="path168" d="m 217.299,424.264 h 566.577 v 35.86 H 217.299 Z" onmouseup="sendClickToParentDocument(evt)" style="fill-rule:evenodd;fill:#ffffff"></path><g transform="translate(758.5776,489.8626)" id="g170" onmouseup="sendClickToParentDocument(evt)" style=""><path id="path172" d="M 0,0 3.869,1.212 V 3.608 L 6.732,4.505 V 8.74 l 2.006,0.629 v 5.34 l 1.697,0.533 2.418,-0.532 V 9.37 L 15.708,8.74 V 4.506 L 19.787,3.607 V 1.212 l 5.511,-1.213 V -45.008 H 10.435 v -10e-4 H 0 Z" onmouseup="sendClickToParentDocument(evt)" style="fill-rule:evenodd;fill:#ffffff"></path></g><g transform="translate(659.954,499.8272)" id="g174" onmouseup="sendClickToParentDocument(evt)" style=""><path id="path176" d="M 0,0 7.803,3.621 H 7.804 L 23.942,1.636 33.453,0.466 V -50.658 H 0 Z" onmouseup="sendClickToParentDocument(evt)" style="fill-rule:evenodd;fill:#ffffff"></path></g><g transform="translate(696.3048,482.4061)" id="g178" onmouseup="sendClickToParentDocument(evt)" style=""><path id="path180" d="M 0,0 6.587,3.057 20.21,1.381 28.239,0.394 V -42.762 H 0 Z" onmouseup="sendClickToParentDocument(evt)" style="fill-rule:evenodd;fill:#ffffff"></path></g><g transform="translate(727.4413,484.7874)" id="g182" onmouseup="sendClickToParentDocument(evt)" style=""><path id="path184" d="M 0,0 6.587,3.057 20.21,1.382 28.239,0.394 V -42.762 H 0 Z" onmouseup="sendClickToParentDocument(evt)" style="fill-rule:evenodd;fill:#ffffff"></path></g><g transform="translate(349.7564,504.9767)" id="g186" onmouseup="sendClickToParentDocument(evt)" style=""><path id="path188" d="M 0,0 -7.004,1.928 -18.89,5.203 V 5.19 5.203 L -36.679,1.928 -47.162,0 v -62.111 h 28.272 v 0.009 -0.009 H 0 Z" onmouseup="sendClickToParentDocument(evt)" style="fill-rule:evenodd;fill:#ffffff"></path></g><g transform="translate(298.8661,490.1764)" id="g190" onmouseup="sendClickToParentDocument(evt)" style=""><path id="path192" d="M 0,0 -5.927,1.632 -15.983,4.403 V 4.392 4.402 L -31.034,1.632 -39.902,0 v -42.444 h 23.919 v 0.008 -0.008 H 0 Z" onmouseup="sendClickToParentDocument(evt)" style="fill-rule:evenodd;fill:#ffffff"></path></g><g transform="translate(255.976,499.809)" id="g194" onmouseup="sendClickToParentDocument(evt)" style=""><path id="path196" d="M 0,0 -2.65,0.73 -7.147,1.969 V 1.964 1.969 L -13.878,0.73 -17.845,0 v -54.047 h 10.698 v 0.004 -0.004 H 0 Z" onmouseup="sendClickToParentDocument(evt)" style="fill-rule:evenodd;fill:#ffffff"></path></g><g transform="translate(235.1437,496.263)" id="g198" onmouseup="sendClickToParentDocument(evt)" style=""><path id="path200" d="M 0,0 -2.65,0.73 -7.147,1.969 V 1.965 1.969 L -13.878,0.73 -17.845,0 v -54.047 h 10.698 v 0.004 -0.004 H 0 Z" onmouseup="sendClickToParentDocument(evt)" style="fill-rule:evenodd;fill:#ffffff"></path></g><g transform="translate(287.5558,331.5351)" id="g202" onmouseup="sendClickToParentDocument(evt)" style=""><path id="path204" d="m 0,0 h -21.378 l -34.508,61.063 h -0.488 c 0.687,-10.785 1.031,-18.477 1.031,-23.078 V 0 h -15.029 v 80.718 h 21.214 l 34.454,-60.456 h 0.38 c -0.542,10.49 -0.814,17.907 -0.814,22.25 V 80.718 H 0 Z" onmouseup="sendClickToParentDocument(evt)" style="fill-rule:nonzero;fill:#ffffff"></path></g><g transform="translate(332.2103,379.0166)" id="g206" onmouseup="sendClickToParentDocument(evt)" style=""><path id="path208" d="M 0,0 16.549,33.236 H 34.67 L 8.356,-16.066 V -47.482 H -8.356 v 30.863 l -26.315,49.855 h 18.231 z" onmouseup="sendClickToParentDocument(evt)" style="fill-rule:nonzero;fill:#ffffff"></path></g><g transform="translate(410.5586,399.1685)" id="g210" onmouseup="sendClickToParentDocument(evt)" style=""><path id="path212" d="m 0,0 c -6.33,0 -11.231,-2.421 -14.704,-7.26 -3.472,-4.841 -5.208,-11.586 -5.208,-20.235 0,-17.998 6.637,-26.998 19.912,-26.998 5.57,0 12.317,1.417 20.238,4.252 v -14.356 c -6.51,-2.76 -13.781,-4.141 -21.811,-4.141 -11.539,0 -20.366,3.562 -26.478,10.684 -6.114,7.122 -9.17,17.344 -9.17,30.669 0,8.392 1.501,15.744 4.504,22.057 3.002,6.312 7.315,11.153 12.94,14.52 5.624,3.368 12.217,5.052 19.777,5.052 7.705,0 15.445,-1.896 23.223,-5.686 L 17.797,-5.355 C 14.831,-3.92 11.846,-2.669 8.844,-1.601 5.841,-0.534 2.894,0 0,0" onmouseup="sendClickToParentDocument(evt)" style="fill-rule:nonzero;fill:#ffffff"></path></g><g transform="translate(546.9086,331.5351)" id="g214" onmouseup="sendClickToParentDocument(evt)" style=""><path id="path216" d="m 0,0 h -21.378 l -34.508,61.063 h -0.488 c 0.687,-10.785 1.031,-18.477 1.031,-23.078 V 0 h -15.029 v 80.718 h 21.214 l 34.454,-60.456 h 0.38 c -0.543,10.49 -0.814,17.907 -0.814,22.25 V 80.718 H 0 Z" onmouseup="sendClickToParentDocument(evt)" style="fill-rule:nonzero;fill:#ffffff"></path></g><g transform="translate(703.6603,372.2252)" id="g218" onmouseup="sendClickToParentDocument(evt)" style=""><path id="path220" d="m 0,0 c 0,17.336 -7.525,26.005 -22.572,26.005 h -8.952 v -52.561 h 7.216 C -8.104,-26.556 0,-17.705 0,0 m 17.471,0.441 c 0,-13.286 -3.716,-23.464 -11.15,-30.531 -7.434,-7.066 -18.168,-10.6 -32.202,-10.6 h -22.463 v 80.718 h 24.904 c 12.95,0 23.005,-3.478 30.168,-10.435 C 13.89,22.637 17.471,12.92 17.471,0.441" onmouseup="sendClickToParentDocument(evt)" style="fill-rule:nonzero;fill:#ffffff"></path></g><g transform="translate(783.256,331.5351)" id="g222" onmouseup="sendClickToParentDocument(evt)" style=""><path id="path224" d="M 0,0 H -45.685 V 80.718 H 0 V 66.695 H -28.865 V 48.972 H -2.008 V 34.949 H -28.865 V 14.134 l 28.865,0 z" onmouseup="sendClickToParentDocument(evt)" style="fill-rule:nonzero;fill:#ffffff"></path></g></g></g><g id="g226" onmouseup="sendClickToParentDocument(evt)" style=""><g id="g228" onmouseup="sendClickToParentDocument(evt)" style=""><g id="g234" onmouseup="sendClickToParentDocument(evt)" style=""><g id="g236" onmouseup="sendClickToParentDocument(evt)" style=""><path id="path244" d="m 564.733,393.497 c -0.053,-0.038 -0.106,-0.074 -0.165,-0.103 v 0 c -0.127,-0.065 -0.261,-0.112 -0.396,-0.155 v 0 c -0.557,-0.541 -1.227,-1.433 -1.227,-2.598 v 0 l -0.04,-37.723 c 0,0 0.392,-1.784 1,-1.962 v 0 l 12.98,21.855 -11.838,20.771 c -0.095,-0.054 -0.203,-0.081 -0.314,-0.085" onmouseup="sendClickToParentDocument(evt)" style="fill:url(#linearGradient242)"></path></g></g></g></g><g id="g246" onmouseup="sendClickToParentDocument(evt)" style=""><g id="g248" onmouseup="sendClickToParentDocument(evt)" style=""><g id="g254" onmouseup="sendClickToParentDocument(evt)" style=""><g id="g256" onmouseup="sendClickToParentDocument(evt)" style=""><path id="path264" d="m 563.611,351.229 c 0,0 1.843,-1.802 3.372,-2.253 v 0 l 32.272,-17.761 c 0,0 0.922,-0.251 1.843,0 v 0 l -24.213,41.596 z" onmouseup="sendClickToParentDocument(evt)" style="fill:url(#linearGradient262)"></path></g></g></g></g><g id="g266" onmouseup="sendClickToParentDocument(evt)" style=""><g id="g268" onmouseup="sendClickToParentDocument(evt)" style=""><g id="g274" onmouseup="sendClickToParentDocument(evt)" style=""><g id="g276" onmouseup="sendClickToParentDocument(evt)" style=""><path id="path284" d="m 625.292,373.24 12.431,-20.454 v 38.286 c 0,1.183 -1,1.764 -1,1.764 v 0 z" onmouseup="sendClickToParentDocument(evt)" style="fill:url(#linearGradient282)"></path></g></g></g></g><g id="g286" onmouseup="sendClickToParentDocument(evt)" style=""><g id="g288" onmouseup="sendClickToParentDocument(evt)" style=""><g id="g294" onmouseup="sendClickToParentDocument(evt)" style=""><g id="g296" onmouseup="sendClickToParentDocument(evt)" style=""><path id="path304" d="m 625.581,373.24 11.142,19.596 c -1,1.802 -35.586,19.801 -35.586,19.801 v 0 z" onmouseup="sendClickToParentDocument(evt)" style="fill:url(#linearGradient302)"></path></g></g></g></g><g id="g306" onmouseup="sendClickToParentDocument(evt)" style=""><g id="g308" onmouseup="sendClickToParentDocument(evt)" style=""><g id="g314" onmouseup="sendClickToParentDocument(evt)" style=""><g id="g316" onmouseup="sendClickToParentDocument(evt)" style=""><path id="path324" d="M 598.667,412.375 565.26,393.766 c -0.016,-0.017 -0.03,-0.034 -0.049,-0.048 v 0 c 0.013,0.016 0.021,0.026 0.03,0.038 v 0 l -0.003,-0.002 c -0.002,-0.002 -0.003,-0.003 -0.006,-0.006 v 0 c -0.017,-0.026 -0.037,-0.05 -0.06,-0.073 v 0 c -0.068,-0.07 -0.154,-0.114 -0.246,-0.143 v 0 l 35.123,-60.856 c 0.971,-2.28 1.971,-1.211 1.971,-1.211 v 0 l 32.899,18.149 c 2.529,0.958 2.804,3.172 2.804,3.172 v 0 l -9.803,16.685 -26.783,43.166 c -0.284,0.074 -0.562,0.103 -0.823,0.103 v 0 c -0.93,0 -1.647,-0.365 -1.647,-0.365" onmouseup="sendClickToParentDocument(evt)" style="fill:url(#linearGradient322)"></path></g></g></g></g><g id="g326" onmouseup="sendClickToParentDocument(evt)" style=""><g clip-path="url(#clipPath332)" id="g328" onmouseup="sendClickToParentDocument(evt)" style=""><g transform="translate(493.2574,557.6187)" id="g334" onmouseup="sendClickToParentDocument(evt)" style=""><path id="path336" d="m 0,0 v -0.569 l -2.344,0.094 c 0.123,-0.694 0.49,-0.905 0.781,-0.934 0.301,-0.03 0.518,-0.674 0.885,-1.259 L 0,-2.452 V -2.77 L -0.586,-2.809 C -0.199,-3.378 -0.223,-3.946 0,-4.413 v -95.95 h -11.779 v 14.944 l -1.001,1.671 1.803,1.268 v 3.072 l 5.051,0.464 c 0.073,0.09 0.162,0.181 0.267,0.267 1.138,0.942 2.763,1.853 3.673,3.218 0.911,1.366 1.366,7.021 1.495,8.939 0.13,1.918 0.065,2.699 0.065,2.699 0,0 -0.584,1.56 -1.008,2.925 -0.422,1.365 -0.845,2.666 -1.039,3.706 -0.195,1.041 -0.261,1.82 -0.553,3.349 -0.292,1.527 -0.292,5.98 -0.292,5.98 0,0 -0.066,0.78 -0.261,1.431 -0.195,0.649 -0.259,1.527 -0.259,1.527 0,0 -0.228,0.618 -0.455,1.593 -0.228,0.975 -0.353,2.321 -0.452,4.349 -0.098,2.029 0.493,4.509 0.493,4.509 0,0 -0.355,0.513 -0.768,1.182 -0.414,0.67 -0.532,3.268 0.157,6.164 0.69,2.894 2.422,5.08 2.422,5.08 0,0 -0.158,0.335 -0.67,1.614 -0.511,1.281 -0.394,1.399 -0.649,3.132 -0.256,1.732 -0.395,1.359 -0.945,1.929 -0.551,0.571 -0.296,1.753 -0.533,1.616 -0.235,-0.139 -0.354,0.294 -1.2,0.236 -0.847,-0.06 -0.591,1.063 -0.552,2.736 0.039,1.675 0.946,3.86 1.202,4.392 0.255,0.532 0.039,1.359 -0.237,2.284 -0.275,0.926 -0.551,1.969 -1.3,3.801 -0.747,1.831 -1.318,5.355 -1.495,6.399 -0.178,1.045 -0.356,2.678 -0.356,2.461 0,-0.215 -0.374,-0.648 -0.727,-0.648 -0.355,0 -0.808,1.004 -0.808,1.004 0,0 -0.137,0.038 -0.157,0.707 -0.02,0.67 -0.277,0.67 -0.454,1.025 -0.177,0.355 0.157,0.531 0.157,0.531 0,0 -0.038,0.374 0.139,0.788 0.178,0.414 -0.099,1.733 -0.099,1.733 0,0 -0.354,0.098 -0.65,0.651 -0.295,0.55 0.236,0.747 0.236,0.747 0,0 -0.433,0.276 -0.433,0.728 0,0.454 0.277,0.473 0.277,0.473 0,0 -0.414,0.374 -0.335,0.808 0.077,0.433 0.551,0.353 0.551,0.353 v 0.573 c 0,0 -0.119,0.355 -0.247,0.579 -0.56,0.293 -0.911,0.676 -0.62,0.896 -0.192,0.071 -0.397,0.143 -0.571,0.198 -0.492,0.158 -0.709,0.572 -0.945,0.788 -0.236,0.216 -0.176,0.453 0,0.61 0.178,0.157 0.256,0.847 0.374,1.064 -0.038,0.498 -0.753,0.855 -0.753,0.855 l 0.553,-0.033 -0.163,0.455 0.65,-0.065 0.162,0.423 0.911,-0.13 0.487,0.618 0.588,-0.233 c -0.015,0.229 -0.091,0.441 -0.308,0.807 -0.472,0.631 -1.005,1.792 -0.394,2.6 0.61,0.807 0.945,0.413 1.417,0.964 0.473,0.553 0.986,1.202 1.498,0.966 0.511,-0.236 -0.02,-1.635 0.472,-1.34 0.493,0.296 0.768,-0.137 1.299,0.217 0.532,0.354 0.925,1.181 1.083,0.925 0.158,-0.255 0,-0.669 -0.058,-1.181 -0.059,-0.512 -1.478,-1.654 -1.753,-2.225 -0.275,-0.571 -0.375,-0.847 -0.611,-0.946 -0.137,-0.056 -0.1,-0.281 -0.047,-0.544 0.039,-0.189 0.087,-0.397 0.087,-0.578 l 1.247,0.21 0.128,-0.488 0.847,0.13 -0.164,-0.455 0.586,-0.065 c 0,0 -0.389,-0.357 -0.586,-0.747 -0.195,-0.391 0.164,-0.716 0.424,-1.236 0.259,-0.52 -0.359,-0.747 -0.359,-1.073 0,-0.324 -1.95,-0.715 -1.95,-0.715 0,0 0.293,-0.293 0.26,-0.52 -0.032,-0.228 -0.487,-0.456 -0.487,-0.456 l -0.13,-1.3 c 0,0 0.13,-0.032 0.65,-0.682 0.52,-0.649 0.909,-1.593 1.268,-2.73 0.357,-1.138 0.292,-1.625 0.812,-3.382 0.52,-1.754 0.228,-1.43 1.334,-3.867 1.104,-2.439 2.047,-5.656 2.112,-6.567 0.003,-0.044 0.008,-0.086 0.012,-0.128 z M 0,3.735 -2.664,5.047 0,3.175 Z m 12.078,-5.012 5.199,1.315 -5.835,-0.167 c -0.2,0.307 -0.428,0.618 -0.68,0.912 L 14.58,3.827 9.831,1.689 C 9.668,1.817 9.501,1.933 9.326,2.037 9.083,2.183 8.795,2.326 8.475,2.458 L 9.314,7.102 7.233,2.854 C 6.751,2.966 6.249,3.039 5.749,3.049 L 2.185,8.322 4.485,2.927 C 3.961,2.802 3.477,2.577 3.073,2.221 L 0,3.735 V 3.175 L 2.45,1.453 C 2.179,1.012 2.019,0.618 1.937,0.273 L 0,0 V -0.569 L 1.884,-0.644 C 1.979,-1.283 2.336,-1.603 2.336,-1.603 L 2.342,-1.703 0,-2.452 V -2.77 l 2.401,0.158 c 0.041,-0.562 0.099,-1.214 0.164,-1.559 0.131,-0.683 0.227,-1.041 0.52,-1.074 0.293,-0.031 0.553,0.228 0.553,0.228 l 0.064,-0.52 c 0,0 -0.292,-0.715 -0.519,-1.17 -0.228,-0.455 -0.455,-1.072 -0.455,-1.072 0,0 -1.236,0.584 -1.658,0.974 -0.422,0.39 -0.455,0.358 -0.651,0.91 C 0.225,-5.341 0.355,-5.017 0.062,-4.529 0.039,-4.49 0.018,-4.452 0,-4.413 v -95.95 h 28.02 l -0.066,14.01 1.202,1.803 -1.869,0.802 0.065,2.871 -4.838,1.259 c -0.097,0.173 -0.202,0.366 -0.316,0.583 -1.235,2.373 -1.95,5.526 -1.95,5.526 0,0 0.554,-0.52 0.391,1.463 -0.162,1.983 -0.618,4.226 -0.682,5.397 -0.066,1.17 0.162,2.665 0.162,2.665 0,0 0.91,0.455 0.683,1.528 -0.229,1.072 -0.457,3.673 -0.457,3.673 0,0 0.522,-0.162 0.359,1.365 -0.164,1.529 -1.398,17.456 -1.398,17.456 0,0 0.91,-0.227 1.365,-0.584 0.455,-0.358 2.438,-0.358 3.381,1.365 0.942,1.723 1.301,3.088 1.364,3.966 0.066,0.877 0.879,2.21 0.813,3.088 -0.065,0.877 0.195,2.731 -0.324,3.381 -0.521,0.649 -0.455,1.495 -0.617,2.145 -0.163,0.65 -0.099,0.78 -0.327,1.105 -0.227,0.326 -0.584,0.879 -0.584,0.879 l 1.462,3.51 -1.397,2.405 -1.398,0.292 -1.332,-2.828 c 0,0 -0.489,0.293 -0.749,0.489 -0.259,0.194 -1.918,3.379 -2.405,4.387 -0.487,1.008 -1.105,1.82 -1.658,2.471 -0.553,0.65 -0.747,0.813 -1.3,1.072 -0.552,0.262 0.162,0.488 -0.812,0.943 -0.976,0.456 -1.821,1.172 -2.147,1.983 -0.324,0.814 -0.26,0.618 -0.26,0.618 0,0 0.488,-0.163 0.619,0.325 0.13,0.487 -0.456,1.43 -0.456,1.43 0,0 0.358,1.202 0.196,1.82 -0.163,0.618 -0.651,0.943 -0.651,0.943 l -0.195,0.975 c 0,0 0.195,-0.389 0.487,0.065 0.294,0.456 0.229,0.78 -0.032,1.723 -0.053,0.196 -0.146,0.441 -0.271,0.717" onmouseup="sendClickToParentDocument(evt)" style="fill-rule:evenodd;fill:#ffffff"></path></g></g></g></g></svg></g>
    </g>
</svg>