<?xml version="1.0" standalone="no"?>
<!DOCTYPE svg PUBLIC "-//W3C//DTD SVG 20010904//EN"
 "http://www.w3.org/TR/2001/REC-SVG-20010904/DTD/svg10.dtd">
<svg version="1.0" xmlns="http://www.w3.org/2000/svg"
 width="900.000000pt" height="420.000000pt" viewBox="0 0 900.000000 420.000000"
 preserveAspectRatio="xMidYMid meet">
<metadata>
Created by potrace 1.10, written by Peter Selinger 2001-2011
</metadata>
<g transform="translate(0.000000,420.000000) scale(0.100000,-0.100000)"
fill="#000000" stroke="none">
<path d="M4203 4025 c-7 -8 -13 -26 -13 -40 0 -14 -7 -28 -15 -31 -19 -8 -19
-52 -1 -73 8 -9 16 -46 19 -82 3 -48 11 -76 27 -96 12 -17 24 -50 27 -74 3
-24 12 -53 19 -64 17 -24 18 -105 2 -140 -10 -22 -8 -29 14 -53 13 -15 33 -48
42 -75 17 -46 17 -48 -5 -95 -25 -50 -26 -61 -11 -232 15 -175 34 -304 48
-332 16 -31 19 -154 4 -193 -17 -44 -70 -85 -111 -85 -32 0 -37 -4 -50 -37
-11 -29 -12 -51 -5 -91 8 -45 6 -56 -7 -70 -10 -9 -17 -11 -17 -5 0 6 -39 37
-87 69 -49 32 -93 63 -99 69 -7 5 -24 19 -40 30 -178 128 -352 317 -440 480
-97 179 -88 137 -94 445 l-5 275 -29 3 c-47 6 -51 -8 -48 -139 l4 -119 -184 2
-183 3 3 104 c4 134 0 151 -38 151 -17 0 -30 -5 -31 -12 0 -7 -1 -337 -2 -733
l-2 -720 -28 -3 c-49 -6 -60 13 -53 93 3 38 6 214 7 390 l1 320 -46 19 c-36
16 -46 25 -46 43 0 18 -9 28 -35 39 -33 13 -35 17 -35 59 0 33 -6 50 -24 68
-20 20 -23 30 -18 76 5 59 -3 71 -50 71 -52 0 -58 -7 -58 -76 0 -64 0 -64 -36
-79 -34 -14 -36 -16 -29 -53 7 -46 -7 -62 -63 -71 -29 -5 -37 -11 -37 -28 0
-30 -7 -34 -72 -47 l-57 -12 3 -372 c3 -410 11 -491 36 -362 4 19 10 137 14
261 5 186 9 230 22 245 8 11 21 37 27 60 14 47 75 131 103 139 10 4 31 22 45
41 15 19 42 42 62 51 l35 17 29 -35 c16 -19 42 -48 58 -65 58 -64 60 -75 61
-301 0 -114 4 -263 8 -330 6 -116 8 -124 37 -159 53 -66 77 -78 157 -80 80 -2
405 -4 452 -3 17 1 163 0 325 -2 211 -2 301 1 317 9 12 7 54 12 93 12 69 0 72
1 115 41 25 23 48 54 52 68 3 14 9 31 13 36 4 6 16 33 26 60 11 29 41 75 72
108 97 106 115 184 84 372 -42 256 -55 414 -40 485 14 68 17 144 6 157 -11 14
17 63 37 63 12 0 46 -35 113 -119 79 -98 100 -170 65 -220 -59 -85 -67 -111
-65 -226 4 -408 6 -420 72 -519 17 -24 40 -69 51 -98 44 -112 52 -127 88 -161
60 -58 61 -58 711 -58 655 -1 625 -2 678 39 68 54 72 81 72 457 l0 322 25 34
c14 19 28 42 31 51 3 10 32 27 63 39 47 17 71 20 151 16 124 -7 207 -23 238
-47 13 -11 35 -20 48 -20 18 0 25 -7 29 -27 4 -16 9 -37 11 -48 3 -11 9 -173
13 -360 7 -321 12 -375 31 -375 15 0 19 78 24 488 l4 402 -49 0 c-28 0 -58 4
-68 10 -10 5 -49 14 -87 19 -38 5 -94 18 -124 29 -53 19 -54 20 -26 27 53 14
256 -2 326 -25 118 -40 123 -45 145 -145 8 -35 32 -65 52 -65 21 0 32 41 34
129 2 90 -8 111 -52 111 -15 0 -30 4 -33 9 -3 4 -29 11 -58 15 -28 4 -57 10
-62 14 -19 12 -140 41 -172 41 -17 1 -34 -2 -38 -6 -4 -5 -38 -13 -74 -20 -37
-7 -94 -17 -126 -23 -32 -6 -67 -15 -77 -20 -10 -6 -42 -10 -71 -10 -70 0 -98
-9 -98 -29 0 -28 -43 -61 -78 -61 -19 0 -32 -5 -32 -12 -1 -7 -2 -209 -3 -448
l-2 -435 -30 0 -30 0 0 730 0 730 -29 3 c-16 2 -32 -2 -37 -9 -4 -7 -5 -66 -2
-131 l6 -118 -184 2 -184 3 3 113 c4 121 -2 142 -43 142 -43 0 -45 -13 -43
-286 2 -234 0 -263 -16 -294 -11 -19 -22 -42 -26 -51 -9 -18 -60 -112 -75
-137 -48 -82 -107 -154 -205 -253 -100 -101 -158 -148 -367 -299 -23 -16 -52
-30 -64 -30 -18 0 -20 4 -15 28 17 68 18 83 2 106 -8 13 -29 27 -46 31 -57 12
-63 35 -62 233 1 97 -4 206 -9 242 -5 36 -12 82 -16 102 l-5 37 42 3 c41 3 42
4 60 58 23 66 24 108 5 134 -17 22 -20 76 -5 76 16 0 12 46 -6 61 -14 11 -19
9 -34 -11 l-18 -24 -21 24 c-11 14 -20 32 -21 40 0 16 -36 59 -68 82 -13 9
-21 31 -25 73 -7 69 -2 82 33 86 33 5 32 23 -2 27 -14 2 -32 10 -38 18 -7 8
-21 14 -31 14 -14 0 -19 7 -19 25 0 27 -17 34 -26 10 -6 -16 -34 -21 -34 -7 0
5 -11 22 -25 38 -19 23 -25 25 -25 12 0 -10 5 -18 10 -18 16 0 12 -50 -5 -66
-21 -21 -19 -58 5 -79 11 -10 20 -31 20 -47 0 -26 -3 -29 -27 -26 -21 2 -30
10 -36 33 -5 17 -15 44 -22 60 -20 48 -75 221 -75 237 0 9 -7 21 -15 28 -21
17 -19 44 5 65 24 21 26 53 5 61 -16 6 -21 34 -7 34 12 0 32 46 25 54 -12 12
-78 5 -90 -9z m-879 -816 c3 -3 7 -122 7 -263 2 -289 4 -282 -67 -266 -31 7
-55 26 -112 87 -72 77 -142 163 -175 215 -13 21 -17 50 -17 126 0 54 2 101 5
104 7 7 352 4 359 -3z m2694 -101 l3 -106 -43 -63 c-24 -34 -85 -106 -135
-160 -79 -82 -98 -98 -130 -102 -21 -2 -44 0 -51 6 -9 7 -12 70 -11 266 0 140
2 258 4 262 2 3 84 5 182 5 l178 -1 3 -107z m-3000 -264 c28 -37 32 -50 32
-104 l0 -61 -42 3 -43 3 -3 94 c-1 52 0 101 3 109 6 17 6 17 53 -44z m3002
-60 l0 -105 -42 3 -43 3 -3 53 c-3 48 1 60 34 108 20 29 41 51 45 48 5 -3 9
-52 9 -110z m-2584 49 c4 -10 19 -43 35 -74 26 -51 29 -66 29 -156 0 -55 -3
-103 -6 -106 -4 -3 -26 8 -50 25 l-44 31 0 149 c0 126 2 148 15 148 9 0 18 -8
21 -17z m2146 -130 c-2 -119 -6 -151 -19 -165 -19 -21 -72 -50 -74 -40 -1 4
-3 50 -4 102 -3 89 -1 99 29 160 41 84 45 90 59 90 9 0 11 -38 9 -147z m-2428
5 c8 -13 7 -21 -2 -30 -17 -17 -46 1 -50 31 -3 18 1 22 19 19 12 -2 27 -11 33
-20z m2736 2 c0 -18 -26 -40 -49 -40 -15 0 -14 33 1 48 19 19 48 15 48 -8z
m-2842 -357 l-3 -278 -30 -6 c-57 -10 -55 -19 -55 282 l0 279 45 0 45 0 -2
-277z m143 7 c0 -146 0 -271 -1 -278 0 -9 -13 -12 -42 -10 l-41 3 1 275 c1
151 2 276 2 278 0 2 18 2 41 0 l40 -3 0 -265z m2223 72 c-14 -13 -31 -21 -38
-19 -6 2 -12 32 -14 73 -3 69 -2 70 35 108 l38 38 3 -89 c3 -85 2 -89 -24
-111z m331 -84 l-1 -273 -38 -3 c-21 -2 -43 1 -49 7 -6 6 -9 97 -8 242 l2 233
42 37 c23 21 44 36 47 34 3 -2 5 -126 5 -277z m136 8 c0 -157 -3 -272 -9 -278
-5 -5 -25 -8 -43 -6 l-34 3 0 278 0 278 43 -3 43 -3 0 -269z m139 -5 c0 -301
2 -292 -55 -282 l-30 6 -3 278 -2 277 45 0 45 0 0 -279z m-2725 236 l38 -33 1
-239 0 -240 -47 -3 c-26 -2 -47 1 -47 5 0 4 -2 128 -3 276 -1 186 1 267 9 267
6 0 28 -15 49 -33z m296 1 c22 -25 29 -42 29 -73 0 -22 3 -49 5 -60 9 -33 -8
-49 -36 -35 -13 7 -28 20 -34 29 -11 19 -13 171 -2 171 4 0 21 -15 38 -32z
m-130 -124 l37 -25 -1 -182 -2 -182 -45 0 -45 0 0 200 c-1 110 1 203 3 208 5
11 14 9 53 -19z m258 -8 c30 -31 41 -113 18 -122 -27 -10 -67 35 -67 77 0 41
8 69 19 69 4 0 18 -11 30 -24z m1589 -31 c3 -38 -1 -52 -19 -71 -39 -41 -62
-26 -54 35 5 35 44 93 60 88 5 -2 11 -25 13 -52z m274 -132 c2 -104 -1 -196
-5 -205 -5 -13 -19 -18 -47 -18 -22 0 -40 5 -41 10 0 6 -1 87 -1 181 l-1 171
29 24 c16 13 37 23 46 24 15 0 17 -18 20 -187z m-1984 77 c22 -18 23 -26 24
-147 0 -70 0 -133 -1 -139 -2 -18 -38 -23 -57 -9 -15 10 -17 31 -16 161 0 82
1 150 1 152 2 8 30 -2 49 -18z m1844 -127 c2 -91 -1 -151 -7 -160 -7 -9 -23
-13 -40 -11 l-30 3 -3 138 c-2 133 -2 139 20 157 13 11 31 19 40 20 15 0 17
-16 20 -147z m-1559 55 c13 -36 -4 -48 -43 -30 -41 20 -61 62 -41 86 12 14 17
13 45 -10 17 -15 34 -35 39 -46z m1307 35 c0 -34 -8 -46 -37 -62 -56 -29 -74
11 -26 61 35 37 63 37 63 1z m-1460 -43 c17 -17 20 -33 20 -115 0 -83 -2 -96
-19 -105 -22 -11 -47 -5 -53 13 -3 7 -3 60 0 120 5 115 12 127 52 87z m1578
-98 c2 -102 1 -112 -17 -121 -22 -12 -50 -5 -52 13 -1 6 -1 52 0 101 2 78 5
92 23 108 36 31 43 17 46 -101z m-1329 52 c54 -45 36 -78 -23 -43 -25 15 -36
28 -36 45 0 31 21 31 59 -2z m1081 2 c0 -25 -36 -56 -65 -56 -25 0 -17 37 13
59 36 27 52 26 52 -3z m-1205 -30 c23 -19 29 -32 31 -67 3 -70 -2 -79 -46 -79
-21 0 -40 5 -42 13 -3 6 -4 41 -2 77 2 36 3 68 4 73 0 14 25 7 55 -17z m1330
-61 l0 -80 -34 -3 c-45 -5 -55 8 -52 70 2 44 7 57 29 75 47 39 57 28 57 -62z
m-1043 -4 c60 -32 79 -71 35 -71 -14 0 -30 7 -37 15 -7 8 -22 15 -33 15 -20 0
-20 0 -1 -21 16 -17 16 -22 4 -29 -19 -12 -27 -12 -51 0 -25 14 -25 50 1 57
25 7 25 11 -2 32 -24 20 -16 45 13 36 10 -3 42 -19 71 -34z m795 24 c3 -9 -2
-22 -13 -30 -18 -14 -18 -16 -1 -26 24 -14 22 -56 -3 -64 -40 -13 -82 17 -45
31 22 9 18 24 -5 24 -11 0 -20 -4 -20 -10 0 -5 -13 -10 -30 -10 -16 0 -30 3
-30 8 1 18 33 46 77 68 57 28 62 29 70 9z m-963 -16 c27 -16 36 -28 36 -48 0
-32 -16 -51 -45 -51 -12 0 -26 5 -33 12 -18 18 -15 108 4 108 2 0 19 -9 38
-21z m1084 -37 c3 -47 1 -52 -22 -58 -32 -8 -66 12 -66 39 0 23 57 79 75 73 6
-1 11 -26 13 -54z"/>
<path d="M4575 3640 c-3 -5 3 -10 15 -10 12 0 18 5 15 10 -3 6 -10 10 -15 10
-5 0 -12 -4 -15 -10z"/>
<path d="M7537 3169 c-16 -9 -18 -19 -12 -62 7 -45 5 -52 -15 -67 -17 -13 -23
-28 -24 -61 -1 -37 -4 -44 -25 -49 -13 -3 -28 -13 -33 -23 -4 -9 -12 -25 -16
-34 -5 -10 -23 -23 -40 -28 -44 -15 -46 -19 -32 -71 20 -70 14 -71 -177 -37
-84 15 -94 15 -110 1 -10 -9 -28 -19 -39 -22 -49 -15 -49 -21 -44 -333 3 -160
8 -295 13 -299 4 -4 13 -2 20 5 8 8 14 83 18 254 4 133 10 257 14 275 7 31 29
44 37 21 5 -16 269 -24 297 -10 18 10 22 7 36 -26 12 -29 17 -93 22 -275 3
-131 10 -238 14 -238 14 0 19 34 24 185 3 83 9 206 14 275 4 69 4 130 -1 136
-4 6 -26 16 -47 23 -22 6 -43 16 -46 21 -3 5 26 30 65 55 46 30 72 54 76 70 3
14 19 36 36 50 l29 25 30 -22 c16 -12 51 -42 77 -66 26 -24 59 -50 73 -57 28
-15 45 -61 52 -136 5 -53 54 -166 67 -153 5 5 10 83 12 174 l3 164 -47 7 c-59
9 -64 12 -71 48 -6 27 -11 30 -49 33 l-43 3 0 48 c0 46 -2 49 -33 63 l-33 14
6 55 c7 53 6 55 -20 65 -33 13 -55 12 -78 -1z"/>
<path d="M380 3039 c-78 -25 -147 -44 -219 -61 l-54 -13 -1 -722 -1 -723 4387
0 c2413 0 4388 3 4390 8 2 4 1 237 -2 517 l-5 510 -30 0 c-23 0 -31 5 -33 23
-4 27 3 28 35 2 14 -11 29 -17 34 -14 16 10 10 54 -8 60 -10 3 -26 10 -35 15
-25 13 -27 12 -38 -17 -13 -33 -55 -31 -55 3 0 11 -12 31 -27 43 -23 18 -28
29 -28 66 0 45 0 45 -32 42 -31 -3 -33 -6 -36 -43 -2 -22 -10 -44 -18 -48 -10
-6 -14 -21 -12 -45 3 -32 0 -37 -20 -40 -16 -3 -25 -12 -29 -32 -4 -22 -12
-30 -32 -32 -21 -2 -26 -8 -24 -28 1 -14 4 -114 6 -223 3 -109 8 -201 11 -204
3 -3 12 -3 21 0 12 5 15 30 16 149 1 179 10 249 34 263 11 5 31 23 47 40 l28
29 29 -22 c17 -12 35 -22 41 -22 5 0 10 -8 10 -18 0 -9 9 -34 20 -56 16 -29
20 -47 14 -82 -4 -28 -2 -49 5 -58 7 -8 9 -25 5 -40 -3 -14 -7 -139 -8 -278
-1 -139 -6 -268 -10 -286 -16 -65 127 -60 -1906 -63 -1020 -1 -2330 -2 -2910
0 -580 1 -1455 1 -1945 0 -490 -2 -1077 -2 -1306 -1 -393 2 -418 3 -440 21
-22 18 -24 28 -29 143 -3 68 -1 169 3 223 5 55 10 129 11 165 1 36 5 71 10 78
4 7 -2 24 -13 41 -26 36 -26 43 -1 66 25 23 25 41 0 55 -25 13 -26 45 -2 62
31 22 46 57 31 74 -17 21 1 36 37 32 34 -4 32 10 39 -283 6 -209 9 -245 25
-245 8 0 20 527 12 556 -5 17 -73 34 -140 34 -61 0 -82 11 -64 33 6 7 20 48
31 91 11 43 25 84 30 90 5 6 31 17 58 25 26 7 73 22 104 33 76 26 116 24 403
-28 44 -8 89 -20 101 -28 21 -14 34 -57 52 -171 6 -33 13 -51 24 -53 20 -4 26
30 35 185 8 127 2 144 -50 143 -17 -1 -58 4 -91 10 -33 6 -96 17 -140 25 -44
7 -120 20 -170 29 -109 19 -96 20 -175 -5z"/>
<path d="M1350 2855 c-19 -8 -61 -21 -92 -30 -136 -37 -173 -49 -181 -55 -5
-4 -4 -41 2 -81 12 -83 3 -99 -51 -99 -15 0 -47 -4 -70 -10 -24 -5 -81 -17
-127 -27 l-83 -18 3 -237 c2 -131 5 -238 7 -238 2 0 12 8 23 19 19 17 20 33
23 199 2 99 6 185 10 191 11 17 33 13 49 -10 15 -20 15 -20 37 10 20 29 25 31
90 31 52 0 78 5 105 21 29 17 44 20 83 14 51 -7 132 -39 132 -52 1 -4 5 -93
10 -198 4 -104 11 -198 15 -207 19 -48 25 0 25 201 0 121 3 226 6 235 6 17
-41 41 -111 56 -68 15 -120 37 -123 54 -5 24 54 74 101 86 40 10 79 28 171 77
43 23 101 30 111 13 4 -6 -9 -10 -32 -10 -62 0 -62 1 -52 -160 4 -80 8 -234 8
-342 1 -182 8 -234 26 -190 4 9 11 132 15 272 7 248 13 294 41 317 16 12 203
28 334 28 77 0 96 -4 130 -24 22 -12 44 -29 48 -37 4 -8 16 -14 26 -14 42 0
46 -21 51 -296 5 -246 9 -288 28 -270 4 4 9 163 10 352 3 281 1 345 -10 348
-7 2 -40 11 -73 21 -33 9 -82 24 -110 33 -61 20 -165 19 -229 -3 -58 -20 -146
-12 -228 22 -64 26 -96 27 -148 8z"/>
<path d="M515 2705 c-22 -8 -50 -15 -62 -15 -28 0 -37 -14 -24 -39 6 -10 13
-135 16 -287 3 -147 7 -270 10 -272 15 -15 19 29 22 231 3 165 8 234 19 270
15 44 18 47 50 47 29 0 34 -4 34 -22 0 -15 11 -29 30 -40 29 -16 30 -20 31
-90 2 -332 5 -388 16 -399 7 -7 16 -9 20 -5 5 4 11 116 15 249 3 133 9 267 12
297 l6 55 -49 18 c-58 20 -93 21 -146 2z"/>
<path d="M8420 2709 c-25 -4 -83 -15 -130 -24 -47 -8 -110 -20 -140 -25 -30
-5 -82 -15 -115 -23 l-60 -14 3 -69 c2 -38 10 -91 18 -118 9 -34 14 -100 14
-208 0 -95 4 -158 10 -158 21 0 32 48 39 186 6 115 11 149 25 162 13 14 20 14
36 4 11 -7 20 -8 20 -3 0 5 9 12 19 16 25 8 148 -12 187 -30 28 -13 32 -21 37
-67 4 -29 7 -92 7 -139 0 -70 4 -91 19 -110 19 -23 19 -22 26 121 4 80 5 170
3 200 l-3 55 -90 8 c-49 4 -123 15 -163 24 -58 13 -78 14 -93 5 -19 -12 -59
-17 -59 -7 0 3 7 17 16 30 19 29 50 38 189 59 55 9 127 23 160 32 33 9 76 20
95 23 36 8 80 31 80 43 0 3 -7 14 -16 22 -17 17 -59 19 -134 5z"/>
<path d="M7610 2461 c-8 -4 -28 -14 -45 -22 l-30 -15 -3 -164 c-1 -90 0 -171
4 -180 14 -32 33 45 34 135 1 114 11 165 32 179 14 8 21 6 32 -9 12 -16 17
-18 27 -7 19 18 70 15 114 -8 22 -11 46 -20 55 -20 8 0 27 -13 41 -28 24 -24
27 -36 31 -125 3 -54 10 -103 17 -110 6 -6 11 -7 11 -1 2 26 20 282 23 304 1
18 -4 25 -18 28 -11 2 -27 10 -35 17 -10 9 -52 15 -120 18 -58 2 -116 7 -130
10 -14 4 -32 3 -40 -2z"/>
<path d="M705 2040 c3 -5 12 -10 20 -10 8 0 17 5 20 10 4 6 -5 10 -20 10 -15
0 -24 -4 -20 -10z"/>
<path d="M1380 2040 c0 -13 11 -13 30 0 12 8 11 10 -7 10 -13 0 -23 -4 -23
-10z"/>
<path d="M2165 2040 c3 -5 12 -10 20 -10 8 0 17 5 20 10 4 6 -5 10 -20 10 -15
0 -24 -4 -20 -10z"/>
<path d="M6920 2040 c0 -5 6 -10 14 -10 8 0 18 5 21 10 3 6 -3 10 -14 10 -12
0 -21 -4 -21 -10z"/>
<path d="M2975 1345 c-89 -16 -127 -31 -195 -75 -102 -65 -162 -143 -220 -285
-52 -125 -50 -437 4 -583 56 -151 165 -253 324 -307 71 -23 325 -24 392 -1 25
9 53 16 62 16 9 0 28 5 41 11 24 11 25 17 29 118 3 58 1 111 -4 118 -7 9 -23
6 -66 -11 -202 -82 -356 -71 -458 32 -24 25 -44 52 -44 60 0 7 -6 26 -14 40
-8 15 -22 71 -32 126 -16 93 -16 104 0 200 29 174 77 253 186 308 45 24 182
25 242 2 60 -23 110 -46 130 -63 16 -12 20 -9 38 33 11 26 20 52 20 57 0 4 9
25 19 46 11 21 23 50 26 64 6 24 3 26 -52 43 -32 10 -67 23 -77 28 -54 28
-257 41 -351 23z"/>
<path d="M112 1342 c-10 -7 -13 -137 -13 -625 0 -340 2 -621 5 -625 5 -8 223
-9 229 -1 7 8 -13 813 -21 869 -10 73 -18 83 -54 76 -24 -5 -30 -2 -38 20 -18
47 -12 108 13 132 23 22 85 30 121 16 21 -8 82 -100 92 -138 6 -26 5 -28 -17
-21 -13 4 -36 14 -51 21 -34 18 -62 18 -77 1 -14 -17 -4 -27 25 -27 15 0 25
-8 29 -22 7 -26 114 -243 147 -298 11 -19 31 -55 45 -80 13 -25 28 -52 33 -60
5 -8 29 -51 55 -95 25 -44 50 -87 55 -95 6 -8 13 -22 17 -30 4 -8 25 -46 48
-85 22 -38 51 -91 63 -117 13 -25 29 -52 37 -58 15 -13 335 -20 335 -7 3 99
-1 1241 -4 1244 -3 3 -56 5 -118 5 l-113 0 1 -378 c0 -321 3 -389 17 -447 22
-87 22 -117 1 -117 -16 0 -53 37 -54 54 0 12 -63 138 -105 211 -20 33 -40 69
-45 80 -6 11 -26 47 -45 80 -19 33 -40 69 -45 80 -6 11 -19 34 -30 50 -11 17
-26 44 -34 60 -8 17 -29 53 -45 80 -17 28 -35 59 -41 70 -6 11 -26 47 -45 80
-19 33 -38 68 -41 78 -6 15 -22 17 -149 17 -79 0 -149 2 -157 5 -7 3 -19 1
-26 -3z m839 -982 c10 0 34 14 54 31 19 17 41 29 49 26 13 -5 26 -70 26 -130
0 -44 -35 -77 -80 -77 -58 0 -100 35 -142 120 -21 41 -38 78 -38 83 0 4 25 -6
56 -23 31 -16 65 -30 75 -30z"/>
<path d="M1345 1338 c-3 -8 9 -37 27 -64 18 -27 48 -78 66 -114 19 -36 55
-105 82 -155 27 -49 68 -126 90 -170 23 -44 56 -106 73 -137 88 -159 80 -115
76 -378 l-4 -235 130 0 130 0 -3 245 -3 245 35 60 c19 33 53 94 74 135 22 41
56 104 75 140 20 36 47 88 61 115 14 28 41 77 61 110 19 33 39 71 45 85 6 14
22 39 36 57 13 17 24 42 24 54 0 20 -3 21 -46 15 -26 -3 -91 -6 -146 -6 -85 0
-99 -2 -104 -17 -6 -21 -62 -141 -75 -163 -5 -8 -12 -22 -15 -30 -3 -8 -10
-22 -15 -30 -5 -8 -12 -22 -15 -30 -3 -8 -10 -22 -15 -30 -5 -8 -12 -22 -15
-30 -3 -8 -17 -36 -30 -63 -13 -26 -26 -63 -30 -82 -3 -19 -11 -35 -16 -35
-24 0 -46 22 -52 52 -4 18 -51 124 -106 235 -55 111 -100 207 -100 212 0 7
-39 11 -107 11 -60 0 -125 3 -145 6 -28 5 -39 3 -43 -8z m478 -558 c9 0 19 -5
23 -11 9 -15 71 -2 112 23 30 18 32 18 32 2 0 -15 -29 -82 -84 -194 -24 -50
-41 -32 -106 113 -16 37 -30 74 -30 84 0 15 1 15 18 0 10 -10 26 -17 35 -17z"/>
<path d="M4129 1339 c-10 -6 -15 -1232 -5 -1247 2 -4 55 -7 118 -7 l113 0 -3
300 c-4 374 -17 601 -37 632 -8 12 -11 24 -6 28 18 11 60 -14 67 -40 6 -26 55
-124 113 -228 16 -29 39 -70 51 -92 12 -22 31 -56 42 -75 11 -19 31 -55 45
-80 13 -25 33 -58 43 -75 11 -16 31 -52 45 -80 14 -27 35 -63 45 -80 19 -30
36 -62 80 -145 13 -25 30 -49 37 -53 8 -5 86 -9 173 -10 l160 -2 -2 629 -3
630 -110 -2 c-60 -1 -114 -2 -119 -2 -4 0 -6 -181 -3 -402 4 -335 7 -410 20
-443 22 -56 22 -95 -1 -95 -16 0 -52 32 -52 47 0 9 -94 197 -122 243 -11 19
-31 55 -45 80 -13 25 -34 61 -45 80 -11 19 -31 55 -45 80 -13 25 -33 59 -44
75 -10 17 -22 37 -26 45 -8 17 -88 157 -103 180 -5 8 -20 36 -32 62 l-23 47
-159 3 c-87 2 -162 0 -167 -3z m227 -129 c40 -16 114 -119 114 -161 0 -25 -1
-24 -66 12 -54 31 -55 31 -77 13 -27 -23 -63 -44 -77 -44 -6 0 -10 31 -10 74
0 69 2 76 26 95 30 23 50 26 90 11z m518 -815 c17 -26 70 -41 111 -31 13 3 35
18 49 33 42 45 56 27 56 -69 0 -46 -4 -89 -9 -97 -6 -9 -30 -16 -60 -18 -48
-2 -54 0 -95 40 -25 23 -47 55 -51 72 -3 17 -13 42 -21 57 -16 30 -17 38 -5
38 5 0 16 -11 25 -25z"/>
<path d="M5885 1274 c-71 -41 -141 -79 -154 -85 -13 -5 -35 -18 -50 -28 -14
-10 -66 -40 -116 -66 -49 -26 -96 -52 -102 -57 -10 -8 -13 -85 -13 -322 l0
-313 23 -21 c13 -12 30 -22 38 -22 8 0 39 -16 69 -35 30 -19 58 -35 63 -35 4
0 25 -11 47 -25 36 -23 102 -59 200 -111 19 -11 37 -21 40 -25 14 -15 94 -49
115 -49 13 0 43 13 67 29 24 16 75 46 113 67 118 64 189 103 220 119 17 8 62
32 100 53 l70 38 3 327 c1 182 -2 327 -6 327 -5 0 -27 12 -48 26 -21 15 -81
49 -132 76 -51 26 -110 59 -130 72 -42 26 -166 86 -180 86 -4 0 -23 11 -42 25
-19 14 -41 25 -49 24 -9 0 -74 -34 -146 -75z m424 -156 c25 -14 86 -48 134
-74 48 -26 92 -53 98 -60 7 -8 2 -30 -16 -69 -14 -32 -25 -63 -25 -70 0 -6 -9
-20 -21 -31 -20 -18 -21 -18 -35 1 -25 37 -35 45 -55 45 -18 0 -19 -2 -4 -37
9 -21 29 -54 46 -73 36 -42 93 -160 103 -212 5 -30 2 -45 -19 -78 -14 -23 -34
-44 -43 -47 -9 -4 -31 -17 -48 -30 -17 -13 -38 -23 -47 -23 -9 0 -19 -4 -22
-10 -3 -5 -27 -20 -53 -33 -26 -13 -91 -47 -146 -76 -89 -48 -103 -52 -142
-46 -24 3 -46 11 -50 16 -3 6 -34 24 -67 40 -91 45 -195 102 -209 116 -6 7
-18 13 -24 13 -17 0 -85 39 -106 61 -24 24 -23 37 8 116 24 60 54 104 73 103
3 0 17 -19 31 -41 14 -23 42 -59 63 -82 32 -35 37 -38 37 -18 0 12 -11 38 -24
59 -12 20 -26 47 -30 60 -4 12 -12 22 -17 22 -5 0 -9 5 -9 11 0 6 -17 39 -37
72 -64 105 -116 220 -107 234 8 11 163 93 364 193 30 15 73 31 96 34 38 7 42
5 77 -36 105 -122 120 -138 128 -138 15 0 9 33 -12 65 -33 51 -60 115 -54 125
3 5 31 -9 62 -33 31 -23 77 -54 102 -69z m-703 -434 c-4 -13 -10 -24 -15 -24
-10 0 -21 80 -13 94 9 16 34 -46 28 -70z"/>
<path d="M6894 1338 c-3 -5 -7 -1042 -4 -1241 0 -16 341 -13 490 4 215 24 382
132 463 301 20 42 37 85 37 95 0 10 7 40 15 67 22 72 20 252 -5 343 -31 117
-67 181 -144 259 -54 54 -90 80 -149 108 -42 20 -85 36 -93 36 -9 0 -39 7 -67
15 -38 10 -118 15 -295 17 -134 2 -246 0 -248 -4z m212 -129 c4 -7 -1 -16 -10
-21 -9 -5 -16 -14 -16 -21 0 -7 -12 -25 -26 -41 -21 -23 -28 -26 -35 -15 -20
32 -3 84 34 99 31 12 45 12 53 -1z m279 -101 c34 -6 81 -24 108 -42 50 -32
104 -101 113 -146 3 -14 12 -45 20 -69 19 -60 18 -191 -2 -265 -51 -191 -133
-257 -339 -274 -60 -5 -116 -6 -123 -2 -10 5 -13 88 -13 403 0 218 2 401 6
406 7 12 141 5 230 -11z m-333 -805 c10 -9 18 -21 18 -28 0 -7 9 -20 20 -30
26 -24 25 -35 -3 -35 -33 0 -65 26 -72 60 -10 48 5 62 37 33z"/>
<path d="M8174 1340 c-13 -5 -15 -81 -15 -624 0 -340 2 -621 5 -623 6 -6 706
-9 707 -3 4 23 4 213 -1 219 -3 5 -102 6 -220 2 -118 -4 -219 -4 -223 -1 -6 5
-10 186 -7 307 0 10 48 11 210 6 l210 -6 0 123 0 123 -72 -6 c-94 -8 -338 -11
-345 -4 -5 5 -5 269 0 273 1 1 101 -2 222 -6 121 -4 222 -6 224 -4 8 7 6 216
-1 220 -11 7 -676 10 -694 4z m187 -130 c10 -6 19 -16 19 -22 0 -14 -70 -88
-82 -88 -4 0 -8 22 -8 48 0 41 4 51 23 60 28 14 25 14 48 2z m8 -407 c28 -29
51 -59 51 -67 0 -24 -122 -138 -132 -123 -9 15 -10 172 -1 247 l6 55 13 -30
c7 -17 35 -54 63 -82z m-48 -485 c7 -13 25 -35 41 -50 39 -36 37 -58 -6 -58
-48 0 -66 22 -66 81 0 53 12 63 31 27z"/>
</g>
</svg>
